<svg id="svg" version="1.1" xmlns="http://www.w3.org/2000/svg" xmlns:xlink="http://www.w3.org/1999/xlink" width="400" height="377.77777777777777" viewBox="0, 0, 400,377.77777777777777"><g id="svgg"><path id="path0" d="M0.000 189.036 L 0.000 378.072 200.000 378.072 L 400.000 378.072 400.000 189.036 L 400.000 0.000 200.000 0.000 L 0.000 0.000 0.000 189.036 M292.759 130.806 C 305.118 132.392,310.799 136.071,313.492 144.230 C 315.428 150.096,313.894 165.382,310.741 171.645 C 308.287 176.518,303.041 180.055,296.753 181.076 C 293.424 181.616,95.453 181.601,90.170 181.061 C 88.091 180.848,82.902 180.556,78.639 180.412 C 65.071 179.955,64.168 178.706,63.073 158.878 C 62.423 147.102,63.155 142.720,66.268 139.752 C 66.954 139.098,67.976 137.936,68.540 137.170 C 70.356 134.704,75.146 131.656,78.639 130.743 C 82.770 129.663,284.321 129.722,292.759 130.806 M296.852 243.047 C 298.892 243.922,301.007 246.217,301.880 248.502 C 302.633 250.475,304.376 251.847,307.036 252.563 C 313.232 254.232,315.013 257.610,314.192 266.135 C 313.920 268.957,313.593 274.414,313.465 278.261 C 313.062 290.381,311.495 291.534,293.951 292.626 C 281.016 293.431,77.605 292.956,74.123 292.113 C 65.741 290.084,63.410 286.185,62.901 273.346 C 62.371 259.989,64.083 254.553,69.312 252.988 C 76.369 250.876,78.639 250.106,78.639 249.826 C 78.639 247.916,84.419 244.292,89.414 243.070 C 93.709 242.019,294.403 241.998,296.852 243.047 " stroke="none" fill="#fcfcfc" fill-rule="evenodd"></path><path id="path1" d="M82.967 138.662 C 82.748 138.816,82.080 139.591,81.484 140.386 C 80.031 142.319,77.553 143.970,74.520 145.025 C 72.025 145.892,70.536 147.146,69.397 149.338 C 68.878 150.339,70.068 156.568,71.705 161.418 C 72.580 164.009,75.357 165.643,81.979 167.463 C 86.236 168.634,89.380 169.990,92.079 171.822 L 93.489 172.779 194.184 172.779 L 294.879 172.779 295.411 171.928 C 296.868 169.602,300.916 161.276,301.866 158.654 C 302.458 157.020,303.533 154.808,304.254 153.739 C 305.882 151.328,306.250 150.398,305.853 149.697 C 305.527 149.119,295.314 144.046,291.081 142.358 C 289.710 141.812,287.669 140.735,286.544 139.964 L 284.499 138.563 183.932 138.473 C 128.620 138.424,83.186 138.509,82.967 138.662 M92.817 255.231 C 92.193 255.421,89.726 255.914,87.335 256.326 C 83.479 256.992,74.390 259.704,72.339 260.802 C 71.541 261.229,70.916 263.157,69.608 269.228 L 68.907 272.483 70.133 275.129 C 71.847 278.830,76.855 283.847,80.652 285.667 L 83.344 286.957 183.077 286.957 C 294.507 286.957,284.177 287.190,293.267 284.470 C 297.343 283.250,298.740 281.259,300.581 274.046 C 301.610 270.019,302.815 267.083,304.467 264.580 C 305.197 263.475,305.851 262.253,305.922 261.865 C 306.068 261.056,306.051 261.045,301.563 259.001 C 299.719 258.162,297.380 256.878,296.364 256.148 L 294.516 254.820 194.234 254.853 C 134.843 254.872,93.488 255.026,92.817 255.231 " stroke="none" fill="#967e5b" fill-rule="evenodd"></path><path id="path2" d="M80.530 133.744 C 78.788 134.456,77.414 135.399,75.804 136.986 C 74.556 138.216,72.578 139.793,71.409 140.490 C 64.393 144.671,63.323 152.434,67.494 168.880 C 69.115 175.267,70.342 176.154,77.589 176.170 C 82.480 176.180,83.603 176.307,86.852 177.216 L 90.548 178.251 192.910 178.355 L 295.273 178.458 297.676 177.368 C 300.854 175.928,302.988 173.935,304.593 170.910 C 305.316 169.547,306.406 167.580,307.013 166.541 C 309.078 163.008,311.449 154.864,311.612 150.739 C 311.756 147.118,308.259 142.180,303.834 139.756 C 302.557 139.056,300.577 137.960,299.433 137.320 C 296.731 135.808,292.446 134.427,287.489 133.470 C 283.557 132.711,282.458 132.703,183.251 132.722 L 82.987 132.740 80.530 133.744 M286.544 139.964 C 287.669 140.735,289.710 141.812,291.081 142.358 C 295.314 144.046,305.527 149.119,305.853 149.697 C 306.250 150.398,305.882 151.328,304.254 153.739 C 303.533 154.808,302.458 157.020,301.866 158.654 C 300.916 161.276,296.868 169.602,295.411 171.928 L 294.879 172.779 194.184 172.779 L 93.489 172.779 92.079 171.822 C 89.380 169.990,86.236 168.634,81.979 167.463 C 75.357 165.643,72.580 164.009,71.705 161.418 C 70.068 156.568,68.878 150.339,69.397 149.338 C 70.536 147.146,72.025 145.892,74.520 145.025 C 77.553 143.970,80.031 142.319,81.484 140.386 C 82.080 139.591,82.748 138.816,82.967 138.662 C 83.186 138.509,128.620 138.424,183.932 138.473 L 284.499 138.563 286.544 139.964 M91.200 247.635 C 89.896 248.239,88.364 249.055,87.798 249.449 C 87.231 249.843,83.284 251.337,79.026 252.770 C 67.678 256.587,66.293 257.894,65.402 265.631 C 63.775 279.749,67.958 287.200,79.206 290.217 C 83.232 291.296,283.972 291.327,291.493 290.249 C 302.401 288.686,306.031 287.587,308.112 285.216 L 309.263 283.906 309.263 278.441 C 309.263 274.172,309.427 272.375,310.011 270.231 C 312.697 260.377,311.945 258.374,303.942 254.064 C 301.750 252.884,299.880 251.466,297.831 249.433 L 294.880 246.503 194.226 246.520 L 93.573 246.538 91.200 247.635 M296.364 256.148 C 297.380 256.878,299.719 258.162,301.563 259.001 C 306.051 261.045,306.068 261.056,305.922 261.865 C 305.851 262.253,305.197 263.475,304.467 264.580 C 302.815 267.083,301.610 270.019,300.581 274.046 C 298.740 281.259,297.343 283.250,293.267 284.470 C 284.177 287.190,294.507 286.957,183.077 286.957 L 83.344 286.957 80.652 285.667 C 76.855 283.847,71.847 278.830,70.133 275.129 L 68.907 272.483 69.608 269.228 C 70.916 263.157,71.541 261.229,72.339 260.802 C 74.390 259.704,83.479 256.992,87.335 256.326 C 89.726 255.914,92.193 255.421,92.817 255.231 C 93.488 255.026,134.843 254.872,194.234 254.853 L 294.516 254.820 296.364 256.148 " stroke="none" fill="#c4bca4" fill-rule="evenodd"></path><path id="path3" d="" stroke="none" fill="#100e0d0" fill-rule="evenodd"></path><path id="path4" d="" stroke="none" fill="#100e0d0" fill-rule="evenodd"></path></g></svg>