<svg id="svg" version="1.1" xmlns="http://www.w3.org/2000/svg" xmlns:xlink="http://www.w3.org/1999/xlink" width="400" height="400" viewBox="0, 0, 400,400"><g id="svgg"><path id="path0" d="M0.000 200.000 L 0.000 400.000 200.000 400.000 L 400.000 400.000 400.000 200.000 L 400.000 0.000 200.000 0.000 L 0.000 0.000 0.000 200.000 M136.100 97.211 C 141.650 97.867,145.130 100.152,146.389 103.965 C 147.023 105.889,149.700 108.549,151.611 109.155 C 153.902 109.883,156.014 111.922,157.228 114.580 C 158.497 117.357,160.766 119.705,162.811 120.355 C 164.994 121.049,167.043 122.993,168.240 125.508 C 169.707 128.588,171.313 130.218,174.280 131.636 C 176.982 132.928,178.932 134.946,179.645 137.189 C 180.295 139.234,182.643 141.503,185.420 142.772 C 188.078 143.986,190.117 146.098,190.845 148.389 C 191.629 150.859,194.175 153.096,196.554 153.406 C 197.679 153.553,200.186 154.197,202.125 154.837 L 205.651 156.002 206.953 155.009 C 208.545 153.795,210.526 153.080,214.200 152.396 C 217.964 151.695,219.615 150.555,220.508 148.040 C 221.317 145.762,224.121 143.013,226.072 142.584 C 227.882 142.187,230.355 139.725,231.464 137.215 C 232.763 134.278,234.101 132.921,237.027 131.575 C 239.747 130.324,242.180 127.914,242.584 126.072 C 242.999 124.184,245.722 121.368,247.907 120.566 C 250.473 119.625,252.838 117.292,253.708 114.842 C 254.504 112.599,257.204 109.925,259.405 109.198 C 262.571 108.153,266.962 105.491,269.140 103.295 C 274.906 97.480,279.136 96.037,288.098 96.825 C 299.121 97.796,301.553 99.783,303.241 109.200 C 305.445 121.495,302.150 133.405,296.039 135.236 C 294.237 135.775,292.706 137.682,292.201 140.015 C 291.326 144.058,289.296 146.257,285.366 147.418 C 282.923 148.139,281.509 149.569,280.835 152.000 C 279.797 155.748,277.784 157.673,273.779 158.752 C 271.644 159.327,270.308 160.872,269.426 163.788 C 268.486 166.897,266.897 168.486,263.788 169.426 C 260.872 170.308,259.327 171.644,258.752 173.779 C 257.672 177.789,255.733 179.812,252.000 180.824 C 249.246 181.571,248.550 182.572,248.221 186.264 C 248.067 187.989,247.688 190.640,247.380 192.155 C 247.072 193.670,246.887 195.020,246.969 195.155 C 247.051 195.290,247.327 197.740,247.581 200.600 C 248.121 206.654,248.899 208.341,251.513 209.129 C 253.852 209.834,255.993 211.876,257.228 214.580 C 258.497 217.357,260.766 219.705,262.811 220.355 C 264.994 221.049,267.043 222.993,268.240 225.508 C 269.707 228.588,271.313 230.218,274.280 231.636 C 276.982 232.928,278.932 234.946,279.645 237.189 C 280.295 239.234,282.643 241.503,285.420 242.772 C 288.118 244.004,290.166 246.147,290.866 248.470 C 291.393 250.219,294.041 252.866,296.000 253.602 C 301.906 255.820,304.895 264.758,303.639 276.448 C 302.250 289.375,298.374 292.487,283.600 292.536 C 272.417 292.573,266.834 290.391,264.948 285.246 C 264.244 283.324,261.426 280.000,260.501 280.000 C 258.408 280.000,254.744 276.764,253.742 274.031 C 252.900 271.734,250.687 269.355,248.825 268.747 C 245.769 267.748,243.279 265.316,242.363 262.435 C 241.751 260.513,239.486 258.212,237.667 257.667 C 234.764 256.797,232.264 254.267,231.253 251.175 C 230.645 249.313,228.266 247.100,225.969 246.258 C 223.236 245.256,220.000 241.592,220.000 239.499 C 220.000 239.206,219.208 238.189,218.240 237.240 L 216.481 235.513 210.340 235.708 C 196.063 236.161,192.864 236.945,192.170 240.156 C 191.328 244.052,189.250 246.271,185.366 247.418 C 182.923 248.139,181.509 249.569,180.835 252.000 C 179.797 255.748,177.784 257.673,173.779 258.752 C 171.644 259.327,170.308 260.872,169.426 263.788 C 168.486 266.897,166.897 268.486,163.788 269.426 C 160.872 270.308,159.327 271.644,158.752 273.779 C 157.673 277.784,155.748 279.797,152.000 280.835 C 149.569 281.509,148.139 282.923,147.418 285.366 C 145.667 291.294,142.196 292.739,129.590 292.786 C 113.403 292.846,108.935 289.597,107.542 276.755 C 106.280 265.123,109.189 255.790,114.707 253.766 C 117.273 252.825,119.638 250.492,120.508 248.042 C 121.317 245.762,124.120 243.013,126.072 242.584 C 127.914 242.180,130.324 239.747,131.575 237.027 C 132.921 234.101,134.278 232.763,137.215 231.464 C 139.725 230.355,142.187 227.882,142.584 226.072 C 143.013 224.120,145.762 221.317,148.042 220.508 C 150.492 219.638,152.825 217.273,153.766 214.707 C 154.589 212.465,157.377 209.819,159.628 209.144 C 162.321 208.338,164.215 205.879,164.750 202.498 C 165.002 200.902,165.645 198.437,166.178 197.019 C 167.146 194.447,167.147 194.440,166.364 193.444 C 165.214 191.984,164.432 189.905,163.603 186.114 C 162.871 182.762,161.465 180.008,160.484 180.003 C 158.398 179.992,154.739 176.751,153.742 174.031 C 152.900 171.734,150.687 169.355,148.825 168.747 C 145.733 167.736,143.203 165.236,142.333 162.333 C 141.788 160.514,139.487 158.249,137.565 157.637 C 134.684 156.721,132.252 154.231,131.253 151.175 C 130.645 149.313,128.266 147.100,125.969 146.258 C 123.236 145.256,120.000 141.592,120.000 139.499 C 120.000 138.574,116.676 135.756,114.754 135.052 C 109.609 133.166,107.427 127.583,107.464 116.400 C 107.523 98.658,113.644 94.556,136.100 97.211 " stroke="none" fill="#fcfcfc" fill-rule="evenodd"></path><path id="path1" d="M125.279 107.471 C 123.868 108.427,121.402 109.601,119.679 110.137 C 113.164 112.161,112.346 118.976,118.121 123.125 C 119.177 123.884,120.736 125.516,121.584 126.752 C 123.376 129.364,126.608 132.558,129.252 134.330 C 130.270 135.013,131.738 136.523,132.514 137.686 C 134.024 139.951,138.068 143.906,140.704 145.696 C 141.591 146.299,142.947 147.739,143.716 148.896 C 145.224 151.163,149.281 155.137,151.860 156.874 C 152.737 157.464,153.976 158.724,154.614 159.674 C 156.340 162.244,159.920 165.870,162.325 167.485 C 165.222 169.429,169.837 176.428,171.708 181.714 C 172.003 182.547,172.922 183.652,174.000 184.469 C 180.681 189.530,181.105 204.278,174.713 209.272 C 173.778 210.003,171.348 212.310,169.312 214.400 C 164.785 219.048,163.267 220.572,152.883 230.894 C 151.939 231.832,149.376 234.400,147.187 236.600 C 142.363 241.450,141.676 242.137,136.600 247.191 C 134.400 249.381,131.848 251.945,130.928 252.887 C 130.009 253.829,127.957 255.770,126.369 257.200 C 124.781 258.630,122.526 260.995,121.358 262.456 C 120.191 263.917,118.590 265.511,117.802 265.999 C 116.397 266.867,114.000 270.777,114.000 272.200 C 114.000 273.734,116.433 277.584,118.147 278.764 C 119.115 279.429,120.526 280.835,121.284 281.887 C 122.303 283.301,123.309 284.107,125.144 284.980 L 127.625 286.159 131.014 285.455 C 137.662 284.073,138.422 283.673,139.926 280.765 C 141.700 277.332,144.324 274.727,147.414 273.332 C 149.751 272.277,149.984 272.050,150.834 270.000 C 152.038 267.099,155.824 263.303,158.816 261.998 C 160.824 261.122,161.122 260.824,161.998 258.816 C 163.305 255.819,167.100 252.036,170.000 250.839 C 172.021 250.004,172.280 249.746,173.185 247.665 C 174.528 244.577,177.433 241.589,180.613 240.023 C 182.990 238.853,183.304 238.544,184.425 236.274 C 186.058 232.969,188.403 230.623,191.837 228.858 C 193.397 228.056,195.647 226.730,196.837 225.910 C 200.830 223.160,203.875 222.400,210.900 222.400 C 218.066 222.400,218.802 222.697,221.554 226.708 C 223.373 229.359,226.593 232.548,229.252 234.330 C 230.270 235.013,231.742 236.523,232.523 237.686 C 234.131 240.082,237.761 243.663,240.326 245.386 C 241.276 246.024,242.536 247.263,243.126 248.140 C 244.863 250.719,248.837 254.776,251.104 256.284 C 252.261 257.053,253.701 258.409,254.304 259.296 C 256.096 261.935,260.050 265.976,262.321 267.491 C 263.546 268.308,265.094 269.855,265.984 271.153 C 267.777 273.764,271.009 276.958,273.653 278.731 C 274.672 279.415,276.125 280.835,276.881 281.887 C 280.487 286.906,286.354 286.883,289.895 281.836 C 290.608 280.821,292.008 279.414,293.006 278.710 C 294.694 277.521,297.200 273.630,297.200 272.200 C 297.200 270.791,294.695 266.880,293.050 265.721 C 292.076 265.034,290.563 263.510,289.689 262.336 C 288.816 261.161,286.773 258.990,285.150 257.512 C 282.151 254.779,281.661 254.301,275.004 247.600 C 272.927 245.510,270.389 242.968,269.363 241.952 C 267.346 239.955,261.005 233.618,258.101 230.699 C 257.114 229.706,254.746 227.298,252.838 225.347 C 250.931 223.396,248.616 221.209,247.695 220.486 C 245.672 218.898,242.819 214.609,240.722 210.000 C 238.983 206.177,238.727 205.707,236.899 202.980 C 235.509 200.908,234.063 197.426,233.712 195.305 C 233.451 193.731,234.824 191.731,237.422 189.899 C 239.457 188.465,240.849 186.057,241.959 182.049 C 243.470 176.600,245.404 173.905,248.653 172.728 C 249.641 172.369,250.099 171.802,250.826 170.037 C 252.036 167.099,255.797 163.314,258.816 161.998 C 260.824 161.122,261.122 160.824,261.998 158.816 C 263.303 155.824,267.099 152.038,270.000 150.834 C 272.050 149.984,272.277 149.751,273.332 147.414 C 274.726 144.326,277.330 141.702,280.762 139.926 C 283.250 138.638,283.359 138.514,284.588 135.600 C 286.958 129.979,290.622 124.656,293.294 122.951 C 294.680 122.067,296.241 119.670,296.974 117.302 C 297.662 115.082,294.999 111.330,292.054 110.368 C 288.921 109.345,285.120 107.416,284.171 106.368 C 283.521 105.649,283.455 105.680,282.347 107.210 C 280.688 109.500,278.502 110.928,274.768 112.162 C 270.907 113.438,267.236 115.800,265.997 117.805 C 265.511 118.592,263.917 120.191,262.456 121.358 C 260.995 122.526,258.630 124.781,257.200 126.369 C 255.770 127.957,253.829 130.009,252.887 130.928 C 251.945 131.848,249.381 134.400,247.191 136.600 C 241.290 142.527,240.944 142.871,236.600 147.133 C 234.400 149.291,232.164 151.651,231.631 152.376 C 230.332 154.142,224.222 158.053,219.900 159.885 C 217.839 160.758,216.310 161.655,216.179 162.066 C 215.307 164.813,209.042 168.175,204.800 168.173 C 197.409 168.168,192.660 166.329,189.673 162.314 C 188.808 161.151,186.773 158.990,185.150 157.512 C 182.151 154.779,181.661 154.301,175.004 147.600 C 172.927 145.510,170.389 142.968,169.363 141.952 C 166.959 139.571,160.429 133.041,158.048 130.637 C 157.032 129.611,154.490 127.073,152.400 124.996 C 146.027 118.664,145.297 117.919,141.997 114.377 C 139.259 111.438,138.531 110.882,136.855 110.453 C 134.374 109.817,130.554 108.013,129.000 106.743 L 127.800 105.763 125.279 107.471 " stroke="none" fill="#8c744c" fill-rule="evenodd"></path><path id="path2" d="M124.410 99.832 C 116.533 101.268,113.984 102.901,111.657 108.000 C 109.367 113.017,108.920 116.192,109.927 120.271 C 111.540 126.806,110.520 125.611,137.555 152.651 C 162.855 177.957,165.084 180.425,166.389 184.600 C 167.204 187.208,168.791 189.665,171.113 191.911 C 173.542 194.261,173.655 195.047,171.985 197.992 C 171.545 198.766,170.481 200.840,169.620 202.600 C 168.086 205.735,167.496 206.357,140.482 233.320 C 110.474 263.271,111.609 261.970,109.955 268.317 C 108.267 274.797,111.315 283.492,116.506 287.003 C 124.704 292.548,139.878 291.652,143.866 285.388 C 145.915 282.169,148.415 279.602,151.323 277.729 C 153.276 276.472,154.350 275.446,155.123 274.102 C 156.454 271.786,160.413 267.810,163.012 266.179 C 164.174 265.450,165.450 264.174,166.179 263.012 C 167.810 260.413,171.786 256.454,174.102 255.123 C 175.446 254.350,176.471 253.276,177.729 251.323 C 179.652 248.335,182.469 245.596,185.354 243.909 C 186.563 243.202,187.602 242.160,188.309 240.946 C 189.887 238.237,193.487 234.495,194.946 234.047 C 195.636 233.836,197.389 233.468,198.841 233.230 C 200.294 232.992,202.364 232.530,203.441 232.203 C 204.767 231.801,207.201 231.607,210.975 231.604 L 216.550 231.600 244.309 259.387 C 266.615 281.715,272.477 287.375,274.147 288.191 C 286.322 294.148,298.014 288.673,301.268 275.490 L 302.094 272.146 301.254 268.824 C 299.591 262.250,300.792 263.658,273.949 236.800 C 246.099 208.934,245.658 208.416,244.583 202.303 C 244.267 200.503,243.723 198.053,243.376 196.857 C 242.753 194.717,242.760 194.646,243.799 192.331 C 244.379 191.037,245.279 188.262,245.799 186.164 C 247.014 181.256,247.819 180.161,252.697 176.777 C 253.688 176.089,254.898 174.705,255.608 173.447 C 256.924 171.115,259.986 168.120,263.038 166.179 C 264.159 165.466,265.466 164.148,266.179 163.012 C 267.810 160.413,271.786 156.454,274.102 155.123 C 275.439 154.354,276.482 153.266,277.742 151.323 C 279.783 148.175,282.205 145.779,284.886 144.254 C 287.030 143.036,287.931 141.923,290.431 137.402 C 291.544 135.389,293.295 133.090,295.153 131.202 C 299.753 126.527,302.508 119.500,301.582 114.803 C 300.128 107.424,297.205 102.730,293.242 101.414 C 284.383 98.471,279.915 99.183,274.808 104.352 C 273.267 105.911,271.951 106.825,270.513 107.333 C 264.390 109.498,263.222 110.504,241.200 132.584 C 221.741 152.095,219.952 153.648,214.686 155.607 C 212.159 156.547,209.421 158.465,207.529 160.620 C 205.815 162.572,204.588 162.456,200.400 159.942 C 199.410 159.348,197.616 158.475,196.413 158.002 C 194.423 157.220,191.752 154.665,166.665 129.537 C 144.895 107.732,138.772 101.814,137.531 101.376 C 136.209 100.909,127.726 99.110,127.480 99.243 C 127.436 99.267,126.054 99.532,124.410 99.832 M132.551 108.838 C 133.844 109.451,135.781 110.177,136.855 110.453 C 138.531 110.882,139.259 111.438,141.997 114.377 C 145.297 117.919,146.027 118.664,152.400 124.996 C 154.490 127.073,157.032 129.611,158.048 130.637 C 160.429 133.041,166.959 139.571,169.363 141.952 C 170.389 142.968,172.927 145.510,175.004 147.600 C 181.661 154.301,182.151 154.779,185.150 157.512 C 186.773 158.990,188.808 161.151,189.673 162.314 C 192.660 166.329,197.409 168.168,204.800 168.173 C 209.042 168.175,215.307 164.813,216.179 162.066 C 216.310 161.655,217.839 160.758,219.900 159.885 C 224.222 158.053,230.332 154.142,231.631 152.376 C 232.164 151.651,234.400 149.291,236.600 147.133 C 240.944 142.871,241.290 142.527,247.191 136.600 C 249.381 134.400,251.945 131.848,252.887 130.928 C 253.829 130.009,255.770 127.957,257.200 126.369 C 258.630 124.781,260.995 122.526,262.456 121.358 C 263.917 120.191,265.511 118.592,265.997 117.805 C 267.236 115.800,270.907 113.438,274.768 112.162 C 278.502 110.928,280.688 109.500,282.347 107.210 C 283.455 105.680,283.521 105.649,284.171 106.368 C 285.120 107.416,288.921 109.345,292.054 110.368 C 294.999 111.330,297.662 115.082,296.974 117.302 C 296.241 119.670,294.680 122.067,293.294 122.951 C 290.622 124.656,286.958 129.979,284.588 135.600 C 283.359 138.514,283.250 138.638,280.762 139.926 C 277.330 141.702,274.726 144.326,273.332 147.414 C 272.277 149.751,272.050 149.984,270.000 150.834 C 267.099 152.038,263.303 155.824,261.998 158.816 C 261.122 160.824,260.824 161.122,258.816 161.998 C 255.797 163.314,252.036 167.099,250.826 170.037 C 250.099 171.802,249.641 172.369,248.653 172.728 C 245.404 173.905,243.470 176.600,241.959 182.049 C 240.849 186.057,239.457 188.465,237.422 189.899 C 234.824 191.731,233.451 193.731,233.712 195.305 C 234.063 197.426,235.509 200.908,236.899 202.980 C 238.727 205.707,238.983 206.177,240.722 210.000 C 242.819 214.609,245.672 218.898,247.695 220.486 C 248.616 221.209,250.931 223.396,252.838 225.347 C 254.746 227.298,257.114 229.706,258.101 230.699 C 261.005 233.618,267.346 239.955,269.363 241.952 C 270.389 242.968,272.927 245.510,275.004 247.600 C 281.661 254.301,282.151 254.779,285.150 257.512 C 286.773 258.990,288.816 261.161,289.689 262.336 C 290.563 263.510,292.076 265.034,293.050 265.721 C 294.695 266.880,297.200 270.791,297.200 272.200 C 297.200 273.630,294.694 277.521,293.006 278.710 C 292.008 279.414,290.608 280.821,289.895 281.836 C 286.354 286.883,280.487 286.906,276.881 281.887 C 276.125 280.835,274.672 279.415,273.653 278.731 C 271.009 276.958,267.777 273.764,265.984 271.153 C 265.094 269.855,263.546 268.308,262.321 267.491 C 260.050 265.976,256.096 261.935,254.304 259.296 C 253.701 258.409,252.261 257.053,251.104 256.284 C 248.837 254.776,244.863 250.719,243.126 248.140 C 242.536 247.263,241.276 246.024,240.326 245.386 C 237.761 243.663,234.131 240.082,232.523 237.686 C 231.742 236.523,230.270 235.013,229.252 234.330 C 226.593 232.548,223.373 229.359,221.554 226.708 C 218.802 222.697,218.066 222.400,210.900 222.400 C 203.875 222.400,200.830 223.160,196.837 225.910 C 195.647 226.730,193.397 228.056,191.837 228.858 C 188.403 230.623,186.058 232.969,184.425 236.274 C 183.304 238.544,182.990 238.853,180.613 240.023 C 177.433 241.589,174.528 244.577,173.185 247.665 C 172.280 249.746,172.021 250.004,170.000 250.839 C 167.100 252.036,163.305 255.819,161.998 258.816 C 161.122 260.824,160.824 261.122,158.816 261.998 C 155.824 263.303,152.038 267.099,150.834 270.000 C 149.984 272.050,149.751 272.277,147.414 273.332 C 144.324 274.727,141.700 277.332,139.926 280.765 C 138.422 283.673,137.662 284.073,131.014 285.455 L 127.625 286.159 125.144 284.980 C 123.309 284.107,122.303 283.301,121.284 281.887 C 120.526 280.835,119.115 279.429,118.147 278.764 C 116.433 277.584,114.000 273.734,114.000 272.200 C 114.000 270.777,116.397 266.867,117.802 265.999 C 118.590 265.511,120.191 263.917,121.358 262.456 C 122.526 260.995,124.781 258.630,126.369 257.200 C 127.957 255.770,130.009 253.829,130.928 252.887 C 131.848 251.945,134.400 249.381,136.600 247.191 C 141.676 242.137,142.363 241.450,147.187 236.600 C 149.376 234.400,151.939 231.832,152.883 230.894 C 163.267 220.572,164.785 219.048,169.312 214.400 C 171.348 212.310,173.778 210.003,174.713 209.272 C 181.105 204.278,180.681 189.530,174.000 184.469 C 172.922 183.652,172.003 182.547,171.708 181.714 C 169.837 176.428,165.222 169.429,162.325 167.485 C 159.920 165.870,156.340 162.244,154.614 159.674 C 153.976 158.724,152.737 157.464,151.860 156.874 C 149.281 155.137,145.224 151.163,143.716 148.896 C 142.947 147.739,141.591 146.299,140.704 145.696 C 138.068 143.906,134.024 139.951,132.514 137.686 C 131.738 136.523,130.270 135.013,129.252 134.330 C 126.608 132.558,123.376 129.364,121.584 126.752 C 120.736 125.516,119.177 123.884,118.121 123.125 C 112.346 118.976,113.164 112.161,119.679 110.137 C 121.402 109.601,123.868 108.427,125.279 107.471 L 127.800 105.763 129.000 106.743 C 129.660 107.282,131.258 108.225,132.551 108.838 " stroke="none" fill="#c4bca4" fill-rule="evenodd"></path><path id="path3" d="" stroke="none" fill="#100e0d0" fill-rule="evenodd"></path><path id="path4" d="" stroke="none" fill="#100e0d0" fill-rule="evenodd"></path></g></svg>