<?xml version="1.0" encoding="UTF-8"?>
<svg version="1.1" xmlns="http://www.w3.org/2000/svg" width="92" height="92">
<path d="M0 0 C30.36 0 60.72 0 92 0 C92 30.36 92 60.72 92 92 C61.64 92 31.28 92 0 92 C0 61.64 0 31.28 0 0 Z " fill="#FEFEFE" transform="translate(0,0)"/>
<path d="M0 0 C10.13632352 1.07739664 18.3439964 5.40260362 24.9375 13.25 C31.35328989 22.3955851 33.42386531 31.91861346 32 43 C28.74632147 54.61632462 22.99430525 62.49572147 12.65234375 68.58984375 C4.14462604 73.11309278 -5.90730629 73.30877978 -15.1875 70.9375 C-23.9489443 67.88880231 -31.40938964 62.11754271 -36 54 C-36 53.34 -36 52.68 -36 52 C-32.97021677 50.99007226 -30.73439543 50.86794565 -27.5625 50.75 C-18.60391561 50.01338121 -10.85090911 47.43760608 -4.5 40.875 C0.97645531 33.99520301 3.69025668 26.28674775 3.33984375 17.484375 C2.85610483 13.94807666 1.85432361 10.6799342 0.65625 7.32421875 C-0.06034414 4.78628118 -0.11146807 2.62414409 0 0 Z " fill="#3058A7" transform="translate(50,10)"/>
<path d="M0 0 C7.54952007 4.08179793 13.88625447 9.16197515 16.5625 17.67578125 C18.45527396 27.73114289 17.26089728 36.73007861 11.4921875 45.21875 C6.76229485 51.11461618 0.53557541 55.58619598 -7 57 C-17.01466021 57.8957394 -25.7837806 56.02522756 -34 50 C-34 49.34 -34 48.68 -34 48 C-32.62328125 47.65388672 -32.62328125 47.65388672 -31.21875 47.30078125 C-20.09001827 44.34325065 -13.19796897 41.41943018 -6.4453125 31.79296875 C-5.96835937 31.20128906 -5.49140625 30.60960938 -5 30 C-4.34 30 -3.68 30 -3 30 C-2.87625 29.113125 -2.7525 28.22625 -2.625 27.3125 C-2 24 -2 24 -0.96875 21.90625 C0.44432457 17.66702629 0.210975 13.62182619 0.125 9.1875 C0.11597656 8.30384766 0.10695312 7.42019531 0.09765625 6.50976562 C0.07419637 4.33972641 0.03832865 2.16982753 0 0 Z " fill="#5B89DE" transform="translate(59,19)"/>
</svg>
