<?xml version="1.0" encoding="UTF-8"?>
<svg version="1.1" xmlns="http://www.w3.org/2000/svg" width="92" height="92">
<path d="M0 0 C30.36 0 60.72 0 92 0 C92 30.36 92 60.72 92 92 C61.64 92 31.28 92 0 92 C0 61.64 0 31.28 0 0 Z " fill="#F3B545" transform="translate(0,0)"/>
<path d="M0 0 C30.36 0 60.72 0 92 0 C92 30.36 92 60.72 92 92 C61.64 92 31.28 92 0 92 C0 61.64 0 31.28 0 0 Z M13.63671875 21.8671875 C5.67509994 32.24199387 3.91779859 42.82730678 5.2734375 55.5703125 C7.2566728 66.01036248 12.6629724 74.46995147 21 81 C32.49682482 87.7981225 44.43655696 90.42482927 57.57421875 87.09375 C68.34089998 82.79259181 77.46249051 75.91115759 82.2890625 65.1171875 C86.48407054 53.79971976 87.76906408 43.43491502 83 32 C78.15456698 21.79663624 70.59318384 14.13892289 60 10 C59.1028125 9.64292969 58.205625 9.28585937 57.28125 8.91796875 C53.38038241 7.8266546 49.70560323 7.65624809 45.6875 7.6875 C44.55538086 7.69595947 44.55538086 7.69595947 43.40039062 7.70458984 C31.38006426 7.96646494 21.95127739 13.22314752 13.63671875 21.8671875 Z " fill="#FEFDFD" transform="translate(0,0)"/>
<path d="M0 0 C8.89439784 6.41709911 15.82384153 15.41676722 18.22265625 26.2421875 C20.01365242 37.57860285 17.64668816 48.35809276 11.265625 57.9296875 C4.76110416 66.46860103 -3.08230101 71.6098626 -13.421875 74.4921875 C-25.41660544 75.94312706 -36.2349132 74.7851494 -46.1640625 67.47265625 C-54.03903175 60.80113185 -61.05174122 52.35779403 -62.25 41.7578125 C-63.26083729 28.43313912 -62.07441059 18.56324502 -53.171875 8.1171875 C-39.02342537 -6.47632926 -17.87614241 -11.12934028 0 0 Z M-49.421875 11.4921875 C-55.41530433 19.55923636 -58.63228843 28.33606229 -57.421875 38.4921875 C-55.09571938 49.85036926 -49.5351411 57.97009413 -40.109375 64.6796875 C-32.30676445 69.68829394 -23.9789814 70.69079835 -14.87890625 69.02734375 C-5.67910139 66.61685224 2.28413981 61.48158587 7.578125 53.4921875 C12.5732379 43.90221113 14.16385661 34.33513031 12 23.6328125 C8.73040725 14.29961136 2.01596648 7.4126993 -6.671875 2.9296875 C-21.56372286 -4.02378115 -38.47648845 -1.0901207 -49.421875 11.4921875 Z " fill="#C07642" transform="translate(67.421875,13.5078125)"/>
</svg>
